# xmcd CD database file
#
# Track frame offsets:
#	150
#	32276
#	54604
#	68793
#	81690
#	101323
#	123459
#	148313
#	175764
#	192753
#	221494
#	251439
#	274788
#	289371
#	300027
#	317124
#
# Disc length: 4563 seconds
#
# Revision: 0
# Processed by: cddbd v1.5.2PL0 Copyright (c) Steve Scherf et al.
# Submitted via: CDex 1.70beta2
#
DISCID=e711d110
DTITLE=Various Artist - Best Jazz Ballads 100 Vol.3
DYEAR=2007
DGENRE=Jazz
TTITLE0=Lee Morgan - Remember Cliford
TTITLE1=Earl Klugh - Waltz For Debby
TTITLE2=Les Brown - Sentimental Journey
TTITLE3=Bud Powell - Autumn in New York
TTITLE4=Bud Shank - Over The Rainbow
TTITLE5=Freddie Roach - Unchained Melody
TTITLE6=Pete LA Roca feat.JOE Henderson - Lazy Afternoon
TTITLE7=Dianne Reeves - After Hours
TTITLE8=Phineas Newborn Jr. - Chelsea Bridge
TTITLE9=Grant Green - Nancy
TTITLE10=Thad Jones - April In Paris
TTITLE11=Johnny Griffin - These Foolish Things
TTITLE12=Woody Herman - Early Autumn
TTITLE13=Nancy Wilson - I Left My Heart In San Francisco
TTITLE14=Sonny Criss - Memories Of You
TTITLE15=McCoy Tyner - Lush Life
EXTD=YEAR: 2007
EXTT0=
EXTT1=
EXTT2=
EXTT3=
EXTT4=
EXTT5=
EXTT6=
EXTT7=
EXTT8=
EXTT9=
EXTT10=
EXTT11=
EXTT12=
EXTT13=
EXTT14=
EXTT15=
PLAYORDER=
